<svg width="25" height="24" viewBox="0 0 25 24" fill="none" xmlns="http://www.w3.org/2000/svg">
<path d="M3 7.25C2.58579 7.25 2.25 7.58579 2.25 8C2.25 8.41421 2.58579 8.75 3 8.75V7.25ZM22.5 7.25H3V8.75H22.5V7.25Z" fill="#082644"/>
<path d="M11 2.5L7.5 8" stroke="#082644" stroke-width="1.5" stroke-linecap="round"/>
<path d="M17.5 2.5L14 8" stroke="#082644" stroke-width="1.5" stroke-linecap="round"/>
<path d="M15.5 14.5C15.5 13.8666 14.838 13.4395 13.514 12.5852C12.1719 11.7193 11.5008 11.2863 11.0004 11.6042C10.5 11.9221 10.5 12.7814 10.5 14.5C10.5 16.2186 10.5 17.0779 11.0004 17.3958C11.5008 17.7137 12.1719 17.2807 13.514 16.4148C14.838 15.5605 15.5 15.1334 15.5 14.5Z" stroke="#082644" stroke-width="1.5" stroke-linecap="round"/>
<path d="M22.5 12C22.5 16.714 22.5 19.0711 21.0355 20.5355C19.5711 22 17.214 22 12.5 22C7.78595 22 5.42893 22 3.96447 20.5355C2.5 19.0711 2.5 16.714 2.5 12C2.5 7.28595 2.5 4.92893 3.96447 3.46447C5.42893 2 7.78595 2 12.5 2C17.214 2 19.5711 2 21.0355 3.46447C22.0093 4.43821 22.3356 5.80655 22.4449 8" stroke="#082644" stroke-width="1.5" stroke-linecap="round"/>
</svg>
