<svg width="25" height="24" viewBox="0 0 25 24" fill="none" xmlns="http://www.w3.org/2000/svg">
<path d="M20.3978 16H8.39778C7.46781 16 7.00282 16 6.62132 16.1022C5.58604 16.3796 4.7774 17.1883 4.5 18.2235" stroke="#1C274D" stroke-width="1.5"/>
<path d="M8.5 7H16.5" stroke="#1C274D" stroke-width="1.5" stroke-linecap="round"/>
<path d="M8.5 10.5H13.5" stroke="#1C274D" stroke-width="1.5" stroke-linecap="round"/>
<path d="M20 19H8.5" stroke="#1C274D" stroke-width="1.5" stroke-linecap="round"/>
<path d="M10.5 22C7.67157 22 6.25736 22 5.37868 21.1213C4.5 20.2426 4.5 18.8284 4.5 16V8C4.5 5.17157 4.5 3.75736 5.37868 2.87868C6.25736 2 7.67157 2 10.5 2H14.5C17.3284 2 18.7426 2 19.6213 2.87868C20.5 3.75736 20.5 5.17157 20.5 8M14.5 22C17.3284 22 18.7426 22 19.6213 21.1213C20.5 20.2426 20.5 18.8284 20.5 16V12" stroke="#1C274D" stroke-width="1.5" stroke-linecap="round"/>
</svg>
